<?xml version="1.0" encoding="utf-8"?>
<!-- Generator: Adobe Illustrator 14.0.0, SVG Export Plug-In . SVG Version: 6.00 Build 43363)  -->
<!DOCTYPE svg PUBLIC "-//W3C//DTD SVG 1.1//EN" "http://www.w3.org/Graphics/SVG/1.1/DTD/svg11.dtd">
<svg version="1.1" id="Layer_1" xmlns="http://www.w3.org/2000/svg" xmlns:xlink="http://www.w3.org/1999/xlink" x="0px" y="0px"
	 width="350px" height="475px" viewBox="0 0 350 475" enable-background="new 0 0 350 475" xml:space="preserve">
<g>
	<g>
		<g>
			<path fill="#818285" d="M259.854,326.086l-28.217,35.736l-18.044,21.117l-67.743-5.241l43.865-51.4l31.813-0.157L259.854,326.086
				z"/>
		</g>
	</g>
	<path fill="#FFFFFF" d="M147.044,353.63l55.981,4.987h3.256c5.268,0,9.535,5.709,9.535,12.75c0,5.279,0,5.279-2.461,8.386
		l-0.449,0.077l-64.437-4.987"/>
	<g>
		<g>
			<path fill="#BDBEC0" d="M203.247,359.223l-58.854-5.242l44.503-36.379l26.287-0.158l33.797-0.053L203.247,359.223z"/>
		</g>
	</g>
	<path fill="#939598" d="M213.695,383.479c2.589-3.263,2.589-3.263,2.589-8.813c0-7.402-5.37-14.288-10.907-14.288l46.275-42.448
		c5.537,0,10.91,6.002,10.91,13.402c0,4.867-1.939,10.014-4.844,12.361L213.695,383.479z"/>
</g>
<ellipse opacity="0.1" fill="#21409A" stroke="#000000" enable-background="new    " cx="175.352" cy="240.231" rx="172.648" ry="229.084"/>
<g>
	<g>
		<g>
			<path fill="#818285" d="M160.81,300.833l-33.383,30.966l-21.079,18.088L40.22,334.275l51.255-44.031l31.457,4.742L160.81,300.833
				z"/>
		</g>
	</g>
	<path fill="#FFFFFF" d="M45.105,310.68l54.546,13.547l3.217,0.502c5.206,0.812,8.543,7.108,7.459,14.064
		c-0.813,5.218-0.813,5.218-3.722,7.907l-0.456,0.008l-62.901-14.849"/>
	<g>
		<g>
			<path fill="#BDBEC0" d="M99.777,324.857l-57.345-14.24l49.575-29.094l25.996,3.893l33.403,5.148L99.777,324.857z"/>
		</g>
	</g>
	<path fill="#939598" d="M106.366,350.436c3.061-2.826,3.061-2.826,3.915-8.312c1.14-7.313-3.107-14.944-8.577-15.796l52.259-34.819
		c5.471,0.853,9.856,7.609,8.716,14.925c-0.749,4.809-3.458,9.594-6.688,11.465L106.366,350.436z"/>
</g>
<g>
	<path fill="none" stroke="#FFFFFF" d="M4.52,295.761c0,0,370.111-38.516,344.179,0"/>
	<line fill="none" stroke="#FFFFFF" x1="4.52" y1="315.021" x2="348.698" y2="315.021"/>
	<path fill="none" stroke="#FFFFFF" d="M4.52,355.986c0,0,344.179,21.705,344.179,0"/>
	<line fill="none" stroke="#FFFFFF" x1="4.52" y1="334.283" x2="348.698" y2="334.283"/>
	<line fill="none" stroke="#FFFFFF" x1="4.52" y1="383.984" x2="348.698" y2="383.984"/>
	<line fill="none" stroke="#FFFFFF" x1="4.52" y1="403.242" x2="348.698" y2="403.242"/>
	<line fill="none" stroke="#FFFFFF" x1="4.52" y1="444.22" x2="348.698" y2="444.22"/>
	<line fill="none" stroke="#FFFFFF" x1="4.52" y1="422.5" x2="348.698" y2="422.5"/>
	<path fill="none" stroke="#FFFFFF" d="M4.52,474c0,0,310.795-32.35,344.179,0"/>
</g>
<g>
	<g>
		<g>
			<path fill="#818285" d="M189.02,344.852l-28.219,35.736l-18.043,21.118l-67.743-5.242l43.865-51.399l31.812-0.158L189.02,344.852
				z"/>
		</g>
	</g>
	<path fill="#FFFFFF" d="M76.208,372.396l55.982,4.986h3.255c5.268,0,9.536,5.709,9.536,12.75c0,5.28,0,5.28-2.461,8.386
		l-0.449,0.077l-64.437-4.986"/>
	<g>
		<g>
			<path fill="#BDBEC0" d="M132.411,377.986l-58.854-5.241l44.504-36.379l26.286-0.158l33.797-0.054L132.411,377.986z"/>
		</g>
	</g>
	<path fill="#939598" d="M142.86,402.244c2.588-3.263,2.588-3.263,2.588-8.813c0-7.404-5.37-14.289-10.907-14.289l46.275-42.449
		c5.537,0,10.91,6.002,10.91,13.404c0,4.866-1.939,10.012-4.844,12.36L142.86,402.244z"/>
</g>
<g>
	<g>
		<g>
			<path fill="#818285" d="M158.191,332.725l-28.218,35.735l-18.043,21.118l-67.743-5.242l43.865-51.4l31.812-0.158L158.191,332.725
				z"/>
		</g>
	</g>
	<path fill="#FFFFFF" d="M45.381,360.268l55.982,4.987h3.255c5.268,0,9.536,5.709,9.536,12.75c0,5.28,0,5.28-2.461,8.386
		l-0.449,0.077l-64.437-4.987"/>
	<g>
		<g>
			<path fill="#BDBEC0" d="M101.584,365.859l-58.854-5.242l44.504-36.379l26.286-0.158l33.797-0.053L101.584,365.859z"/>
		</g>
	</g>
	<path fill="#939598" d="M112.033,390.116c2.588-3.263,2.588-3.263,2.588-8.813c0-7.402-5.37-14.287-10.907-14.287l46.275-42.449
		c5.537,0,10.91,6.002,10.91,13.402c0,4.867-1.939,10.014-4.843,12.361L112.033,390.116z"/>
</g>
<g>
	<g>
		<g>
			<path fill="#818285" d="M273.436,348.932l-28.218,35.736l-18.044,21.117l-67.742-5.242l43.863-51.4l31.813-0.158L273.436,348.932
				z"/>
		</g>
	</g>
	<path fill="#FFFFFF" d="M160.625,376.475l55.98,4.987h3.256c5.269,0,9.537,5.71,9.537,12.75c0,5.279,0,5.279-2.463,8.385
		l-0.447,0.079l-64.438-4.987"/>
	<g>
		<g>
			<path fill="#BDBEC0" d="M216.828,382.066l-58.854-5.242l44.502-36.379l26.287-0.157l33.797-0.054L216.828,382.066z"/>
		</g>
	</g>
	<path fill="#939598" d="M227.275,406.324c2.59-3.264,2.59-3.264,2.59-8.814c0-7.402-5.371-14.287-10.908-14.287l46.275-42.449
		c5.537,0,10.91,6.002,10.91,13.402c0,4.867-1.939,10.014-4.844,12.361L227.275,406.324z"/>
</g>
<g>
	<g>
		<g>
			<path fill="#818285" d="M313.598,337.533l-36.195,27.627l-22.715,15.986l-64.33-21.871l55.238-38.924l30.857,7.732
				L313.598,337.533z"/>
		</g>
	</g>
	<path fill="#FFFFFF" d="M197.48,336.255l52.998,18.707l3.153,0.808c5.104,1.306,7.823,7.896,6.077,14.717
		C258.4,375.6,258.4,375.6,255.247,378l-0.454-0.036l-61.191-20.804"/>
	<g>
		<g>
			<path fill="#BDBEC0" d="M250.543,355.604l-55.718-19.668l52.132-24.211l25.506,6.362l32.756,8.325L250.543,355.604z"/>
		</g>
	</g>
	<path fill="#939598" d="M254.652,381.693c3.316-2.521,3.316-2.521,4.693-7.898c1.834-7.171-1.664-15.172-7.027-16.545
		l55.354-29.652c5.364,1.371,9.081,8.516,7.246,15.688c-1.206,4.716-4.36,9.219-7.756,10.773L254.652,381.693z"/>
</g>
<g>
	<g>
		<g>
			<path fill="#818285" d="M312.59,312.798l-44.847,7.879l-27.521,3.746l-47.06-49.012l66.95-9.151l23.843,21.061L312.59,312.798z"
				/>
		</g>
	</g>
	<path fill="#FFFFFF" d="M210.076,258.246l38.453,40.99l2.43,2.168c3.93,3.508,3.314,10.609-1.373,15.861
		c-3.516,3.939-3.516,3.939-7.419,4.619l-0.388-0.242l-44.762-46.619"/>
	<g>
		<g>
			<path fill="#BDBEC0" d="M248.292,299.835l-40.426-43.093l57.427,2.48l19.719,17.385l25.255,22.461L248.292,299.835z"/>
		</g>
	</g>
	<path fill="#939598" d="M239.938,324.893c4.105-0.711,4.105-0.711,7.801-4.854c4.93-5.523,5.505-14.236,1.373-17.922l62.791-0.867
		c4.132,3.686,4.146,11.74-0.783,17.264c-3.24,3.631-8.111,6.182-11.844,5.998L239.938,324.893z"/>
</g>
<g>
	<g>
		<g>
			<path fill="#818285" d="M158.159,260.189l-33.383,30.965l-21.079,18.089l-66.127-15.61L88.825,249.6l31.457,4.741
				L158.159,260.189z"/>
		</g>
	</g>
	<path fill="#FFFFFF" d="M42.454,270.036l54.547,13.547l3.216,0.5c5.205,0.812,8.544,7.11,7.459,14.065
		c-0.812,5.22-0.812,5.22-3.723,7.908l-0.455,0.008l-62.901-14.852"/>
	<g>
		<g>
			<path fill="#BDBEC0" d="M97.126,284.214l-57.345-14.241l49.574-29.093l25.997,3.892l33.402,5.15L97.126,284.214z"/>
		</g>
	</g>
	<path fill="#939598" d="M103.715,309.79c3.062-2.825,3.062-2.825,3.916-8.31c1.139-7.315-3.108-14.944-8.579-15.797l52.261-34.818
		c5.471,0.853,9.855,7.609,8.715,14.924c-0.749,4.809-3.458,9.593-6.687,11.467L103.715,309.79z"/>
</g>
<g>
	<g>
		<g>
			<path fill="#818285" d="M243.533,308.381l-28.217,35.736l-18.043,21.117l-67.742-5.242l43.864-51.4l31.813-0.156L243.533,308.381
				z"/>
		</g>
	</g>
	<path fill="#FFFFFF" d="M130.724,335.924l55.982,4.987h3.255c5.268,0,9.535,5.71,9.535,12.75c0,5.278,0,5.278-2.461,8.385
		l-0.449,0.079l-64.437-4.988"/>
	<g>
		<g>
			<path fill="#BDBEC0" d="M186.927,341.516l-58.854-5.242l44.504-36.379l26.286-0.158l33.797-0.053L186.927,341.516z"/>
		</g>
	</g>
	<path fill="#939598" d="M197.375,365.771c2.589-3.262,2.589-3.262,2.589-8.813c0-7.402-5.371-14.288-10.907-14.288l46.276-42.448
		c5.536,0,10.909,6,10.909,13.402c0,4.867-1.941,10.012-4.844,12.361L197.375,365.771z"/>
</g>
<g>
	<g>
		<g>
			<path fill="#818285" d="M214.352,275.335l-28.22,35.735l-18.041,21.119l-67.743-5.242l43.865-51.4l31.813-0.158L214.352,275.335z
				"/>
		</g>
	</g>
	<path fill="#FFFFFF" d="M101.541,302.879l55.981,4.986h3.255c5.268,0,9.536,5.71,9.536,12.751c0,5.28,0,5.28-2.461,8.386
		l-0.449,0.076l-64.438-4.987"/>
	<g>
		<g>
			<path fill="#BDBEC0" d="M157.744,308.471l-58.854-5.242l44.504-36.379l26.286-0.158l33.798-0.053L157.744,308.471z"/>
		</g>
	</g>
	<path fill="#939598" d="M168.192,332.729c2.588-3.264,2.588-3.264,2.588-8.814c0-7.402-5.371-14.287-10.907-14.287l46.275-42.449
		c5.535,0,10.908,6.002,10.908,13.404c0,4.867-1.938,10.012-4.842,12.359L168.192,332.729z"/>
</g>
<g>
	<path fill="none" stroke="#FFFFFF" d="M1.908,16.197c0,0,370.11-38.516,344.179,0"/>
	<line fill="none" stroke="#FFFFFF" x1="1.908" y1="35.458" x2="346.087" y2="35.458"/>
	<path fill="none" stroke="#FFFFFF" d="M1.908,76.423c0,0,344.179,21.705,344.179,0"/>
	<line fill="none" stroke="#FFFFFF" x1="1.908" y1="54.719" x2="346.087" y2="54.719"/>
	<line fill="none" stroke="#FFFFFF" x1="1.908" y1="104.42" x2="346.087" y2="104.42"/>
	<line fill="none" stroke="#FFFFFF" x1="1.908" y1="123.678" x2="346.087" y2="123.678"/>
	<line fill="none" stroke="#FFFFFF" x1="1.908" y1="164.655" x2="346.087" y2="164.655"/>
	<line fill="none" stroke="#FFFFFF" x1="1.908" y1="142.936" x2="346.087" y2="142.936"/>
	<path fill="none" stroke="#FFFFFF" d="M1.908,194.436c0,0,310.795-32.35,344.179,0"/>
	<line fill="none" stroke="#FFFFFF" x1="1.908" y1="213.699" x2="346.087" y2="213.699"/>
	<path fill="none" stroke="#FFFFFF" d="M1.908,254.665c0,0,297.224,27.868,320.715,0"/>
	<path fill="none" stroke="#FFFFFF" d="M1.908,232.963c0,0,344.495-11.842,344.179,0"/>
</g>
<g>
	<g>
		<g>
			<path fill="#818285" d="M267.136,243.441l-33.383,30.966l-21.079,18.089l-66.127-15.609l51.255-44.035l31.457,4.742
				L267.136,243.441z"/>
		</g>
	</g>
	<path fill="#FFFFFF" d="M151.431,253.289l54.547,13.547l3.215,0.5c5.205,0.813,8.545,7.109,7.459,14.066
		c-0.812,5.219-0.812,5.219-3.723,7.906l-0.455,0.008l-62.9-14.851"/>
	<g>
		<g>
			<path fill="#BDBEC0" d="M206.104,267.467l-57.346-14.242l49.574-29.092l25.997,3.891l33.401,5.151L206.104,267.467z"/>
		</g>
	</g>
	<path fill="#939598" d="M212.691,293.043c3.062-2.825,3.062-2.825,3.916-8.311c1.139-7.314-3.108-14.943-8.58-15.795l52.262-34.819
		c5.471,0.853,9.855,7.608,8.715,14.924c-0.749,4.81-3.458,9.593-6.688,11.467L212.691,293.043z"/>
</g>
<g>
	<g>
		<g>
			<path fill="#818285" d="M64.206,230.063l31.457-4.742l51.255,44.035l-66.127,15.609l-21.079-18.089l-33.383-30.965
				L64.206,230.063z"/>
		</g>
	</g>
	<path fill="#FFFFFF" d="M142.034,245.758l-54.547,13.547l-3.216,0.5c-5.205,0.813-8.544,7.11-7.459,14.066
		c0.812,5.219,0.812,5.219,3.723,7.906l0.455,0.009l62.901-14.851"/>
	<g>
		<g>
			<path fill="#BDBEC0" d="M35.733,225.644l33.402-5.151l25.997-3.891l49.574,29.091l-57.345,14.242L35.733,225.644z"/>
		</g>
	</g>
	<path fill="#939598" d="M80.773,285.512c-3.062-2.824-3.062-2.824-3.916-8.31c-1.139-7.315,3.108-14.944,8.579-15.796
		l-52.261-34.819c-5.471,0.853-9.855,7.609-8.715,14.924c0.749,4.81,3.458,9.593,6.687,11.468L80.773,285.512z"/>
</g>
<g>
	<g>
		<g>
			<path fill="#818285" d="M212.471,219.576l-38.402,24.464l-23.986,14.008l-62.248-27.236l58.332-34.11l30.095,10.316
				L212.471,219.576z"/>
		</g>
	</g>
	<path fill="#FFFFFF" d="M96.879,208.477l51.226,23.125l3.074,1.07c4.975,1.733,7.128,8.529,4.811,15.178
		c-1.736,4.988-1.736,4.988-5.083,7.109l-0.449-0.074l-59.21-25.908"/>
	<g>
		<g>
			<path fill="#BDBEC0" d="M148.114,232.245l-53.853-24.312l53.994-19.713l24.875,8.498l31.935,11.068L148.114,232.245z"/>
		</g>
	</g>
	<path fill="#939598" d="M150.001,258.589c3.519-2.229,3.519-2.229,5.345-7.471c2.434-6.992-0.374-15.26-5.602-17.08l57.666-24.865
		c5.229,1.821,8.328,9.256,5.892,16.247c-1.6,4.596-5.124,8.816-8.637,10.079L150.001,258.589z"/>
</g>
<g>
	<g>
		<g>
			<path fill="#818285" d="M123.485,169.018l30.094-10.316l58.332,34.11l-62.247,27.236l-23.986-14.008l-38.402-24.464
				L123.485,169.018z"/>
		</g>
	</g>
	<path fill="#FFFFFF" d="M202.866,170.477l-51.225,23.125l-3.074,1.07c-4.975,1.733-7.128,8.529-4.811,15.178
		c1.736,4.988,1.736,4.988,5.083,7.109l0.449-0.074l59.21-25.908"/>
	<g>
		<g>
			<path fill="#BDBEC0" d="M94.682,169.786l31.934-11.068l24.875-8.498l53.993,19.713l-53.853,24.312L94.682,169.786z"/>
		</g>
	</g>
	<path fill="#939598" d="M149.744,220.589c-3.519-2.229-3.519-2.229-5.345-7.471c-2.434-6.992,0.374-15.26,5.602-17.08
		l-57.665-24.865c-5.229,1.821-8.328,9.256-5.893,16.247c1.6,4.596,5.125,8.816,8.637,10.079L149.744,220.589z"/>
</g>
<g>
	<g>
		<g>
			<path fill="#818285" d="M222.404,405.588l-33.385,30.967l-21.078,18.087l-66.128-15.609l51.255-44.033l31.457,4.743
				L222.404,405.588z"/>
		</g>
	</g>
	<path fill="#FFFFFF" d="M106.698,415.434l54.547,13.549l3.216,0.502c5.205,0.812,8.542,7.107,7.459,14.064
		c-0.813,5.218-0.813,5.218-3.723,7.906l-0.456,0.009l-62.901-14.849"/>
	<g>
		<g>
			<path fill="#BDBEC0" d="M161.37,429.613l-57.344-14.241l49.574-29.093l25.998,3.892L213,395.32L161.37,429.613z"/>
		</g>
	</g>
	<path fill="#939598" d="M167.959,455.19c3.062-2.827,3.062-2.827,3.916-8.313c1.14-7.313-3.107-14.943-8.578-15.795l52.26-34.819
		c5.471,0.854,9.855,7.608,8.715,14.923c-0.748,4.811-3.459,9.596-6.688,11.468L167.959,455.19z"/>
</g>
<g>
	<g>
		<g>
			<path fill="#818285" d="M240.93,355.936l-25.465,37.746l-16.41,22.41l-67.946-0.157l39.894-54.54l31.712-2.539L240.93,355.936z"
				/>
		</g>
	</g>
	<path fill="#FFFFFF" d="M130.496,391.846l56.197,0.782l3.246-0.244c5.254-0.395,9.938,4.979,10.465,12.001
		c0.395,5.266,0.395,5.266-1.826,8.546l-0.441,0.109l-64.631-0.149"/>
	<g>
		<g>
			<path fill="#BDBEC0" d="M186.961,393.214l-59.082-0.823l41.656-39.605l26.201-2.125l33.699-2.584L186.961,393.214z"/>
		</g>
	</g>
	<path fill="#939598" d="M199.195,416.621c2.338-3.448,2.338-3.448,1.921-8.984c-0.554-7.382-6.425-13.845-11.946-13.431
		l42.971-45.793c5.521-0.415,11.326,5.167,11.881,12.548c0.365,4.854-1.186,10.13-3.903,12.688L199.195,416.621z"/>
</g>
<g>
	<g>
		<g>
			<path fill="#818285" d="M183.866,324.898l31.712,2.539l39.895,54.539l-67.945,0.157l-16.411-22.409l-25.465-37.748
				L183.866,324.898z"/>
		</g>
	</g>
	<path fill="#FFFFFF" d="M256.084,357.889l-56.197,0.782l-3.246-0.244c-5.254-0.395-9.938,4.979-10.465,12.001
		c-0.395,5.266-0.395,5.266,1.826,8.547l0.441,0.108l64.631-0.149"/>
	<g>
		<g>
			<path fill="#BDBEC0" d="M157.145,314.118l33.699,2.584l26.201,2.125l41.655,39.606l-59.081,0.822L157.145,314.118z"/>
		</g>
	</g>
	<path fill="#939598" d="M187.385,382.664c-2.338-3.448-2.338-3.448-1.921-8.984c0.554-7.382,6.425-13.845,11.946-13.431
		l-42.97-45.793c-5.521-0.415-11.327,5.167-11.881,12.548c-0.365,4.854,1.185,10.13,3.903,12.688L187.385,382.664z"/>
</g>
<g>
	<g>
		<g>
			<path fill="#818285" d="M286.202,284.266l-25.466,37.748l-16.41,22.409l-67.945-0.157l39.895-54.539l31.711-2.539
				L286.202,284.266z"/>
		</g>
	</g>
	<path fill="#FFFFFF" d="M175.77,320.176l56.197,0.783l3.246-0.244c5.253-0.395,9.938,4.979,10.464,12.001
		c0.396,5.265,0.396,5.265-1.825,8.546l-0.442,0.109l-64.632-0.148"/>
	<g>
		<g>
			<path fill="#BDBEC0" d="M232.232,321.545l-59.082-0.822l41.656-39.606l26.201-2.125l33.699-2.584L232.232,321.545z"/>
		</g>
	</g>
	<path fill="#939598" d="M244.468,344.952c2.339-3.448,2.339-3.448,1.921-8.984c-0.554-7.382-6.425-13.845-11.945-13.431
		l42.97-45.793c5.521-0.415,11.327,5.167,11.881,12.548c0.365,4.854-1.185,10.13-3.903,12.688L244.468,344.952z"/>
</g>
<g>
	<g>
		<g>
			<path fill="#818285" d="M298.486,250.309l-25.465,37.748l-16.412,22.409l-67.944-0.157l39.894-54.539l31.713-2.539
				L298.486,250.309z"/>
		</g>
	</g>
	<path fill="#FFFFFF" d="M188.053,286.219l56.198,0.783l3.246-0.244c5.253-0.395,9.937,4.979,10.464,12.001
		c0.395,5.265,0.395,5.265-1.826,8.546l-0.441,0.109l-64.631-0.148"/>
	<g>
		<g>
			<path fill="#BDBEC0" d="M244.518,287.588l-59.082-0.822l41.656-39.606l26.201-2.125l33.699-2.584L244.518,287.588z"/>
		</g>
	</g>
	<path fill="#939598" d="M256.752,310.995c2.338-3.448,2.338-3.448,1.921-8.984c-0.554-7.382-6.425-13.845-11.946-13.431
		l42.971-45.793c5.521-0.415,11.326,5.167,11.881,12.548c0.365,4.854-1.186,10.13-3.903,12.688L256.752,310.995z"/>
</g>
<g>
	<g>
		<g>
			<path fill="#818285" d="M158.147,283.645l-26.257,37.199l-16.881,22.059l-67.927-1.594l41.038-53.685l31.758-1.868
				L158.147,283.645z"/>
		</g>
	</g>
	<path fill="#FFFFFF" d="M46.979,317.211l56.169,1.971l3.25-0.175c5.26-0.284,9.829,5.187,10.208,12.22
		c0.283,5.271,0.283,5.271-2.006,8.506l-0.445,0.1l-64.613-1.516"/>
	<g>
		<g>
			<path fill="#BDBEC0" d="M103.402,319.773l-59.052-2.072l42.484-38.717l26.24-1.57l33.747-1.871L103.402,319.773z"/>
		</g>
	</g>
	<path fill="#939598" d="M115.139,343.434c2.41-3.396,2.41-3.396,2.11-8.94c-0.397-7.392-6.131-13.978-11.66-13.681l43.928-44.875
		c5.528-0.297,11.215,5.405,11.613,12.797c0.263,4.86-1.398,10.103-4.171,12.604L115.139,343.434z"/>
</g>
<g>
	<g>
		<g>
			<path fill="#818285" d="M222.814,227.133l31.759,1.868l41.038,53.685l-67.928,1.594l-16.882-22.059l-26.257-37.2L222.814,227.133
				z"/>
		</g>
	</g>
	<path fill="#FFFFFF" d="M295.714,258.588l-56.169,1.971l-3.25-0.175c-5.261-0.284-9.83,5.188-10.209,12.22
		c-0.283,5.271-0.283,5.271,2.007,8.506l0.444,0.1l64.613-1.516"/>
	<g>
		<g>
			<path fill="#BDBEC0" d="M195.871,216.92l33.746,1.871l26.24,1.57l42.483,38.717l-59.051,2.072L195.871,216.92z"/>
		</g>
	</g>
	<path fill="#939598" d="M227.555,284.811c-2.41-3.396-2.41-3.396-2.111-8.94c0.397-7.392,6.132-13.978,11.66-13.681l-43.929-44.875
		c-5.528-0.298-11.216,5.405-11.612,12.796c-0.264,4.861,1.398,10.103,4.17,12.604L227.555,284.811z"/>
</g>
<ellipse fill="none" stroke="#224099" stroke-width="3" cx="175.997" cy="238.621" rx="172.648" ry="229.084"/>
</svg>
