<?xml version="1.0" encoding="utf-8"?>
<!-- Generator: Adobe Illustrator 14.0.0, SVG Export Plug-In . SVG Version: 6.00 Build 43363)  -->
<!DOCTYPE svg PUBLIC "-//W3C//DTD SVG 1.1//EN" "http://www.w3.org/Graphics/SVG/1.1/DTD/svg11.dtd">
<svg version="1.1" id="Layer_1" xmlns="http://www.w3.org/2000/svg" xmlns:xlink="http://www.w3.org/1999/xlink" x="0px" y="0px"
	 width="72px" height="72px" viewBox="0 0 72 72" enable-background="new 0 0 72 72" xml:space="preserve">
<g>
	<g>
		<path fill="none" stroke="#000000" stroke-width="0.25" d="M17.293,21.375c0,0,26.263-3.145,24.422,0"/>
		<line fill="none" stroke="#000000" stroke-width="0.25" x1="17.293" y1="22.947" x2="41.715" y2="22.947"/>
		<path fill="none" stroke="#000000" stroke-width="0.25" d="M17.293,26.292c0,0,24.422,1.771,24.422,0"/>
		<line fill="none" stroke="#000000" stroke-width="0.25" x1="17.293" y1="24.521" x2="41.715" y2="24.521"/>
		<line fill="none" stroke="#000000" stroke-width="0.25" x1="17.293" y1="28.579" x2="41.715" y2="28.579"/>
		<line fill="none" stroke="#000000" stroke-width="0.25" x1="17.293" y1="30.15" x2="41.715" y2="30.15"/>
		<line fill="none" stroke="#000000" stroke-width="0.25" x1="17.293" y1="33.495" x2="41.715" y2="33.495"/>
		<line fill="none" stroke="#000000" stroke-width="0.25" x1="17.293" y1="31.722" x2="41.715" y2="31.722"/>
		<path fill="none" stroke="#000000" stroke-width="0.25" d="M17.293,35.926c0,0,22.054-2.64,24.422,0"/>
		<line fill="none" stroke="#000000" stroke-width="0.25" x1="17.293" y1="37.499" x2="41.715" y2="37.499"/>
		<path fill="none" stroke="#000000" stroke-width="0.25" d="M17.293,40.845c0,0,21.091,2.275,22.757,0"/>
		<path fill="none" stroke="#000000" stroke-width="0.25" d="M17.293,39.072c0,0,24.444-0.967,24.422,0"/>
	</g>
	<g>
		<path fill="none" stroke="#000000" stroke-width="0.25" d="M17.083,44.917c0,0,28.605-3.145,26.601,0"/>
		<line fill="none" stroke="#000000" stroke-width="0.25" x1="17.083" y1="46.489" x2="43.684" y2="46.489"/>
		<path fill="none" stroke="#000000" stroke-width="0.25" d="M17.083,49.835c0,0,25.19,1.31,26.601,0"/>
		<line fill="none" stroke="#000000" stroke-width="0.25" x1="17.083" y1="48.062" x2="43.684" y2="48.062"/>
		<line fill="none" stroke="#000000" stroke-width="0.25" x1="17.083" y1="52.12" x2="43.684" y2="52.12"/>
		<line fill="none" stroke="#000000" stroke-width="0.25" x1="17.083" y1="53.692" x2="43.684" y2="53.692"/>
		<line fill="none" stroke="#000000" stroke-width="0.25" x1="17.083" y1="57.037" x2="43.684" y2="57.037"/>
		<line fill="none" stroke="#000000" stroke-width="0.25" x1="17.083" y1="55.265" x2="43.684" y2="55.265"/>
		<path fill="none" stroke="#000000" stroke-width="0.25" d="M17.083,59.469c0,0,24.021-2.642,26.601,0"/>
		<line fill="none" stroke="#000000" stroke-width="0.25" x1="17.083" y1="61.041" x2="43.684" y2="61.041"/>
		<path fill="none" stroke="#000000" stroke-width="0.25" d="M17.083,64.388c0,0,24.785,2.274,26.601,0"/>
		<path fill="none" stroke="#000000" stroke-width="0.25" d="M17.083,62.613c0,0,26.615-0.868,26.601,0"/>
	</g>
	<g>
		<path fill="#808285" d="M38.598,44.729l5.292-0.461c0,0,3.712,4.559,4.307,7.951S47.766,62.94,47.766,62.94l15.098-20.405
			c1.634-9.04-5.15-13.968-10.697-13.826l0.176-0.015L40.647,42.026"/>
		<g>
			<path fill="#BCBEC0" d="M12.085,17.324c0,0,10.426-11.224,11.309-13.572V3.664c0.943,0.861,17.155,1.871,21.667,0.969
				c0.311-0.063,0.566-0.134,0.758-0.215l-0.377,0.196L31.107,21.337"/>
			<path fill="#939598" d="M40.358,41.802l18.79-21.96C61.411,11.615,48.971,3.44,46.013,4.696l0.028,0.031l-14.644,17.06
				c0,0,6.787-4.066,9.131-1.887c2.356,2.191,4.881,1.474,5.843,6.568C47.341,31.603,40.358,41.802,40.358,41.802z"/>
		</g>
	</g>
	<g>
		<path fill="#414042" d="M11.75,68.94V17.548h19.281c3.926,0,7.076,0.521,9.448,1.56c2.372,1.04,4.229,2.641,5.574,4.803
			c1.343,2.162,2.016,4.423,2.016,6.783c0,2.197-0.597,4.266-1.788,6.205c-1.192,1.94-2.992,3.505-5.398,4.698
			c3.107,0.911,5.497,2.466,7.169,4.662c1.671,2.197,2.506,4.791,2.506,7.782c0,2.408-0.508,4.646-1.524,6.714
			s-2.273,3.663-3.769,4.785c-1.496,1.122-3.371,1.969-5.627,2.542c-2.255,0.572-5.019,0.858-8.291,0.858H11.75z M18.551,39.143
			h11.113c3.015,0,5.176-0.198,6.485-0.596c1.729-0.514,3.033-1.367,3.909-2.56c0.877-1.192,1.314-2.687,1.314-4.487
			c0-1.706-0.409-3.208-1.227-4.504c-0.818-1.297-1.987-2.185-3.506-2.665c-1.52-0.479-4.125-0.719-7.817-0.719H18.551V39.143z
			 M18.551,62.876h12.795c2.196,0,3.739-0.082,4.627-0.246c1.565-0.28,2.875-0.747,3.927-1.401c1.051-0.654,1.916-1.607,2.594-2.857
			s1.017-2.693,1.017-4.33c0-1.916-0.491-3.581-1.473-4.995s-2.343-2.407-4.084-2.979s-4.248-0.859-7.52-0.859H18.551V62.876z"/>
	</g>
</g>
</svg>
