<?xml version="1.0" encoding="utf-8"?>
<!-- Generator: Adobe Illustrator 14.0.0, SVG Export Plug-In . SVG Version: 6.00 Build 43363)  -->
<!DOCTYPE svg PUBLIC "-//W3C//DTD SVG 1.1//EN" "http://www.w3.org/Graphics/SVG/1.1/DTD/svg11.dtd">
<svg version="1.1" id="Layer_1" xmlns="http://www.w3.org/2000/svg" xmlns:xlink="http://www.w3.org/1999/xlink" x="0px" y="0px"
	 width="144px" height="144px" viewBox="0 0 144 144" enable-background="new 0 0 144 144" xml:space="preserve">
<g>
	<g>
		<path fill="none" stroke="#000000" stroke-width="0.25" d="M37.858,42.604c0,0,52.574-6.295,48.89,0"/>
		<line fill="none" stroke="#000000" stroke-width="0.25" x1="37.858" y1="45.752" x2="86.748" y2="45.752"/>
		<path fill="none" stroke="#000000" stroke-width="0.25" d="M37.858,52.447c0,0,48.89,3.548,48.89,0"/>
		<line fill="none" stroke="#000000" stroke-width="0.25" x1="37.858" y1="48.9" x2="86.748" y2="48.9"/>
		<line fill="none" stroke="#000000" stroke-width="0.25" x1="37.858" y1="57.023" x2="86.748" y2="57.023"/>
		<line fill="none" stroke="#000000" stroke-width="0.25" x1="37.858" y1="60.171" x2="86.748" y2="60.171"/>
		<line fill="none" stroke="#000000" stroke-width="0.25" x1="37.858" y1="66.867" x2="86.748" y2="66.867"/>
		<line fill="none" stroke="#000000" stroke-width="0.25" x1="37.858" y1="63.318" x2="86.748" y2="63.318"/>
		<path fill="none" stroke="#000000" stroke-width="0.25" d="M37.858,71.735c0,0,44.148-5.288,48.89,0"/>
		<line fill="none" stroke="#000000" stroke-width="0.25" x1="37.858" y1="74.883" x2="86.748" y2="74.883"/>
		<path fill="none" stroke="#000000" stroke-width="0.25" d="M37.858,81.579c0,0,42.22,4.555,45.557,0"/>
		<path fill="none" stroke="#000000" stroke-width="0.25" d="M37.858,78.031c0,0,48.935-1.935,48.89,0"/>
	</g>
	<g>
		<path fill="none" stroke="#000000" stroke-width="0.25" d="M37.438,89.733c0,0,57.263-6.296,53.25,0"/>
		<line fill="none" stroke="#000000" stroke-width="0.25" x1="37.438" y1="92.88" x2="90.688" y2="92.88"/>
		<path fill="none" stroke="#000000" stroke-width="0.25" d="M37.438,99.576c0,0,50.426,2.623,53.25,0"/>
		<line fill="none" stroke="#000000" stroke-width="0.25" x1="37.438" y1="96.027" x2="90.688" y2="96.027"/>
		<line fill="none" stroke="#000000" stroke-width="0.25" x1="37.438" y1="104.151" x2="90.688" y2="104.151"/>
		<line fill="none" stroke="#000000" stroke-width="0.25" x1="37.438" y1="107.299" x2="90.688" y2="107.299"/>
		<line fill="none" stroke="#000000" stroke-width="0.25" x1="37.438" y1="113.994" x2="90.688" y2="113.994"/>
		<line fill="none" stroke="#000000" stroke-width="0.25" x1="37.438" y1="110.447" x2="90.688" y2="110.447"/>
		<path fill="none" stroke="#000000" stroke-width="0.25" d="M37.438,118.863c0,0,48.085-5.288,53.25,0"/>
		<line fill="none" stroke="#000000" stroke-width="0.25" x1="37.438" y1="122.01" x2="90.688" y2="122.01"/>
		<path fill="none" stroke="#000000" stroke-width="0.25" d="M37.438,128.71c0,0,49.615,4.551,53.25,0"/>
		<path fill="none" stroke="#000000" stroke-width="0.25" d="M37.438,125.158c0,0,53.277-1.739,53.25,0"/>
	</g>
	<g>
		<path fill="#808285" d="M80.508,89.357l10.595-0.922c0,0,7.429,9.124,8.619,15.916c1.19,6.791-0.86,21.459-0.86,21.459
			l30.222-40.846c3.271-18.098-10.312-27.964-21.413-27.678l0.353-0.029L84.609,83.944"/>
		<g>
			<path fill="#BCBEC0" d="M27.433,34.495c0,0,20.872-22.468,22.639-27.167V7.15c1.888,1.723,34.342,3.744,43.373,1.939
				c0.624-0.125,1.135-0.268,1.519-0.43l-0.755,0.393L65.512,42.53"/>
			<path fill="#939598" d="M84.032,83.496l37.614-43.961c4.528-16.469-20.374-32.833-26.295-30.318l0.056,0.062l-29.313,34.15
				c0,0,13.587-8.138,18.279-3.776c4.717,4.386,9.771,2.951,11.696,13.148C98.011,63.08,84.032,83.496,84.032,83.496z"/>
		</g>
	</g>
	<g>
		<path fill="#414042" d="M26.76,137.823V34.943h38.598c7.859,0,14.164,1.042,18.913,3.123c4.747,2.083,8.467,5.288,11.158,9.614
			c2.689,4.328,4.035,8.855,4.035,13.58c0,4.398-1.193,8.539-3.579,12.421c-2.386,3.885-5.989,7.019-10.808,9.404
			c6.222,1.824,11.006,4.937,14.352,9.334c3.345,4.397,5.018,9.591,5.018,15.579c0,4.819-1.018,9.298-3.053,13.438
			s-4.551,7.334-7.544,9.579c-2.995,2.246-6.749,3.942-11.264,5.088c-4.516,1.147-10.047,1.72-16.597,1.72H26.76z M40.375,78.173
			h22.246c6.035,0,10.362-0.397,12.983-1.193c3.461-1.028,6.07-2.737,7.824-5.123c1.755-2.386,2.632-5.38,2.632-8.982
			c0-3.415-0.819-6.422-2.456-9.018c-1.639-2.597-3.978-4.374-7.018-5.333c-3.042-0.958-8.258-1.438-15.649-1.438H40.375V78.173z
			 M40.375,125.683h25.615c4.397,0,7.484-0.163,9.263-0.491c3.134-0.562,5.755-1.497,7.86-2.808
			c2.105-1.309,3.836-3.216,5.193-5.719c1.356-2.503,2.035-5.392,2.035-8.667c0-3.836-0.982-7.169-2.948-10
			c-1.965-2.831-4.69-4.818-8.175-5.966c-3.486-1.146-8.504-1.719-15.053-1.719h-23.79V125.683z"/>
	</g>
</g>
</svg>
