<?xml version="1.0" encoding="utf-8"?>
<!-- Generator: Adobe Illustrator 14.0.0, SVG Export Plug-In . SVG Version: 6.00 Build 43363)  -->
<!DOCTYPE svg PUBLIC "-//W3C//DTD SVG 1.1//EN" "http://www.w3.org/Graphics/SVG/1.1/DTD/svg11.dtd">
<svg version="1.1" id="Layer_1" xmlns="http://www.w3.org/2000/svg" xmlns:xlink="http://www.w3.org/1999/xlink" x="0px" y="0px"
	 width="350px" height="475px" viewBox="0 0 350 475" enable-background="new 0 0 350 475" xml:space="preserve">
<ellipse opacity="0.1" fill="#21409A" stroke="#000000" enable-background="new    " cx="175.352" cy="240.231" rx="172.648" ry="229.084"/>
<g>
	<path fill="none" stroke="#FFFFFF" d="M2.611,296.172c0,0,370.111-38.516,344.179,0"/>
	<line fill="none" stroke="#FFFFFF" x1="2.611" y1="315.434" x2="346.79" y2="315.434"/>
	<path fill="none" stroke="#FFFFFF" d="M2.611,356.398c0,0,344.179,21.705,344.179,0"/>
	<line fill="none" stroke="#FFFFFF" x1="2.611" y1="334.694" x2="346.79" y2="334.694"/>
	<line fill="none" stroke="#FFFFFF" x1="2.611" y1="384.396" x2="346.79" y2="384.396"/>
	<line fill="none" stroke="#FFFFFF" x1="2.611" y1="403.653" x2="346.79" y2="403.653"/>
	<line fill="none" stroke="#FFFFFF" x1="2.611" y1="444.631" x2="346.79" y2="444.631"/>
	<line fill="none" stroke="#FFFFFF" x1="2.611" y1="422.911" x2="346.79" y2="422.911"/>
	<path fill="none" stroke="#FFFFFF" d="M2.611,474.411c0,0,310.795-32.35,344.179,0"/>
</g>
<g>
	<g>
		<g>
			<path fill="#818285" d="M80.149,294.986l31.457-4.742l51.255,44.031l-66.128,15.611l-21.079-18.088l-33.383-30.966
				L80.149,294.986z"/>
		</g>
	</g>
	<path fill="#FFFFFF" d="M159.833,331.859l-62.901,14.849l-0.456-0.008c-2.909-2.689-2.909-2.689-3.722-7.907
		c-1.084-6.956,2.253-13.253,7.459-14.064l3.217-0.502l54.546-13.547"/>
	<g>
		<g>
			<path fill="#BDBEC0" d="M51.675,290.564l33.403-5.148l25.996-3.893l49.575,29.094l-57.345,14.24L51.675,290.564z"/>
		</g>
	</g>
	<path fill="#939598" d="M47.09,317.898c-3.23-1.871-5.939-6.656-6.688-11.465c-1.14-7.315,3.245-14.072,8.716-14.925l52.259,34.819
		c-5.47,0.852-9.717,8.482-8.577,15.796c0.854,5.485,0.854,5.485,3.915,8.312L47.09,317.898z"/>
</g>
<g>
	<g>
		<g>
			<path fill="#818285" d="M189.02,344.852l-28.219,35.736l-18.043,21.118l-67.743-5.242l43.865-51.399l31.812-0.158L189.02,344.852
				z"/>
		</g>
	</g>
	<path fill="#FFFFFF" d="M76.208,372.396l55.982,4.986h3.255c5.268,0,9.536,5.709,9.536,12.75c0,5.28,0,5.28-2.461,8.386
		l-0.449,0.077l-64.437-4.986"/>
	<g>
		<g>
			<path fill="#BDBEC0" d="M132.411,377.986l-58.854-5.241l44.504-36.379l26.286-0.158l33.797-0.054L132.411,377.986z"/>
		</g>
	</g>
	<path fill="#939598" d="M142.86,402.244c2.588-3.263,2.588-3.263,2.588-8.813c0-7.404-5.37-14.289-10.907-14.289l46.275-42.449
		c5.537,0,10.91,6.002,10.91,13.404c0,4.866-1.939,10.012-4.844,12.36L142.86,402.244z"/>
</g>
<g>
	<g>
		<g>
			<path fill="#818285" d="M273.436,348.932l-28.218,35.736l-18.044,21.117l-67.742-5.242l43.863-51.4l31.813-0.158L273.436,348.932
				z"/>
		</g>
	</g>
	<path fill="#FFFFFF" d="M160.625,376.475l55.98,4.987h3.256c5.269,0,9.537,5.71,9.537,12.75c0,5.279,0,5.279-2.463,8.385
		l-0.447,0.079l-64.438-4.987"/>
	<g>
		<g>
			<path fill="#BDBEC0" d="M216.828,382.066l-58.854-5.242l44.502-36.379l26.287-0.157l33.797-0.054L216.828,382.066z"/>
		</g>
	</g>
	<path fill="#939598" d="M227.275,406.324c2.59-3.264,2.59-3.264,2.59-8.814c0-7.402-5.371-14.287-10.908-14.287l46.275-42.449
		c5.537,0,10.91,6.002,10.91,13.402c0,4.867-1.939,10.014-4.844,12.361L227.275,406.324z"/>
</g>
<g>
	<path fill="none" stroke="#FFFFFF" d="M0,16.608c0,0,370.111-38.516,344.179,0"/>
	<line fill="none" stroke="#FFFFFF" x1="0" y1="35.869" x2="344.179" y2="35.869"/>
	<path fill="none" stroke="#FFFFFF" d="M0,76.834c0,0,344.179,21.705,344.179,0"/>
	<line fill="none" stroke="#FFFFFF" x1="0" y1="55.13" x2="344.179" y2="55.13"/>
	<line fill="none" stroke="#FFFFFF" x1="0" y1="104.831" x2="344.179" y2="104.831"/>
	<line fill="none" stroke="#FFFFFF" x1="0" y1="124.089" x2="344.179" y2="124.089"/>
	<line fill="none" stroke="#FFFFFF" x1="0" y1="165.066" x2="344.179" y2="165.066"/>
	<line fill="none" stroke="#FFFFFF" x1="0" y1="143.347" x2="344.179" y2="143.347"/>
	<path fill="none" stroke="#FFFFFF" d="M0,194.847c0,0,310.795-32.35,344.179,0"/>
	<line fill="none" stroke="#FFFFFF" x1="0" y1="214.11" x2="344.179" y2="214.11"/>
	<path fill="none" stroke="#FFFFFF" d="M0,255.076c0,0,297.224,27.868,320.715,0"/>
	<path fill="none" stroke="#FFFFFF" d="M0,233.374c0,0,344.495-11.842,344.179,0"/>
</g>
<g>
	<g>
		<g>
			<path fill="#818285" d="M237.494,330.4l30.858-7.732l55.237,38.923l-64.33,21.871l-22.715-15.985L200.35,339.85L237.494,330.4z"
				/>
		</g>
	</g>
	<path fill="#FFFFFF" d="M320.345,359.475l-61.19,20.805l-0.455,0.035c-3.154-2.399-3.154-2.399-4.461-7.514
		c-1.746-6.82,0.973-13.41,6.076-14.717l3.154-0.807l52.998-18.707"/>
	<g>
		<g>
			<path fill="#BDBEC0" d="M208.729,328.727l32.756-8.324l25.506-6.363l52.133,24.211l-55.719,19.669L208.729,328.727z"/>
		</g>
	</g>
	<path fill="#939598" d="M206.783,356.374c-3.396-1.554-6.55-6.058-7.756-10.772c-1.835-7.172,1.882-14.316,7.246-15.688
		l55.354,29.653c-5.362,1.373-8.86,9.373-7.025,16.545c1.376,5.377,1.376,5.377,4.691,7.897L206.783,356.374z"/>
</g>
<g>
	<g>
		<g>
			<path fill="#818285" d="M312.59,312.798l-44.847,7.879l-27.521,3.746l-47.06-49.012l66.95-9.151l23.843,21.061L312.59,312.798z"
				/>
		</g>
	</g>
	<path fill="#FFFFFF" d="M210.076,258.246l38.453,40.99l2.43,2.168c3.93,3.508,3.314,10.609-1.373,15.861
		c-3.516,3.939-3.516,3.939-7.419,4.619l-0.388-0.242l-44.762-46.619"/>
	<g>
		<g>
			<path fill="#BDBEC0" d="M248.292,299.835l-40.426-43.093l57.427,2.48l19.719,17.385l25.255,22.461L248.292,299.835z"/>
		</g>
	</g>
	<path fill="#939598" d="M239.938,324.893c4.105-0.711,4.105-0.711,7.801-4.854c4.93-5.523,5.505-14.236,1.373-17.922l62.791-0.867
		c4.132,3.686,4.146,11.74-0.783,17.264c-3.24,3.631-8.111,6.182-11.844,5.998L239.938,324.893z"/>
</g>
<g>
	<g>
		<g>
			<path fill="#818285" d="M243.533,308.381l-28.217,35.736l-18.043,21.117l-67.742-5.242l43.864-51.4l31.813-0.156L243.533,308.381
				z"/>
		</g>
	</g>
	<path fill="#FFFFFF" d="M130.724,335.924l55.982,4.987h3.255c5.268,0,9.535,5.71,9.535,12.75c0,5.278,0,5.278-2.461,8.385
		l-0.449,0.079l-64.437-4.988"/>
	<g>
		<g>
			<path fill="#BDBEC0" d="M186.927,341.516l-58.854-5.242l44.504-36.379l26.286-0.158l33.797-0.053L186.927,341.516z"/>
		</g>
	</g>
	<path fill="#939598" d="M197.375,365.771c2.589-3.262,2.589-3.262,2.589-8.813c0-7.402-5.371-14.288-10.907-14.288l46.276-42.448
		c5.536,0,10.909,6,10.909,13.402c0,4.867-1.941,10.012-4.844,12.361L197.375,365.771z"/>
</g>
<g>
	<g>
		<g>
			<path fill="#818285" d="M214.352,275.335l-28.22,35.735l-18.041,21.119l-67.743-5.242l43.865-51.4l31.813-0.158L214.352,275.335z
				"/>
		</g>
	</g>
	<path fill="#FFFFFF" d="M101.541,302.879l55.981,4.986h3.255c5.268,0,9.536,5.71,9.536,12.751c0,5.28,0,5.28-2.461,8.386
		l-0.449,0.076l-64.438-4.987"/>
	<g>
		<g>
			<path fill="#BDBEC0" d="M157.744,308.471l-58.854-5.242l44.504-36.379l26.286-0.158l33.798-0.053L157.744,308.471z"/>
		</g>
	</g>
	<path fill="#939598" d="M168.192,332.729c2.588-3.264,2.588-3.264,2.588-8.814c0-7.402-5.371-14.287-10.907-14.287l46.275-42.449
		c5.535,0,10.908,6.002,10.908,13.404c0,4.867-1.938,10.012-4.842,12.359L168.192,332.729z"/>
</g>
<g>
	<g>
		<g>
			<path fill="#818285" d="M258.949,247.119l-33.383,30.965l-21.08,18.089l-66.126-15.61l51.255-44.034l31.457,4.743
				L258.949,247.119z"/>
		</g>
	</g>
	<path fill="#FFFFFF" d="M143.244,256.966l54.547,13.548l3.216,0.5c5.205,0.812,8.544,7.109,7.459,14.065
		c-0.812,5.219-0.812,5.219-3.723,7.907l-0.455,0.008l-62.901-14.852"/>
	<g>
		<g>
			<path fill="#BDBEC0" d="M197.916,271.145l-57.345-14.242l49.574-29.092l25.998,3.891l33.401,5.151L197.916,271.145z"/>
		</g>
	</g>
	<path fill="#939598" d="M204.505,296.721c3.062-2.826,3.062-2.826,3.916-8.311c1.14-7.314-3.108-14.944-8.579-15.796l52.262-34.819
		c5.471,0.854,9.854,7.609,8.715,14.924c-0.75,4.809-3.459,9.594-6.688,11.467L204.505,296.721z"/>
</g>
<g>
	<g>
		<g>
			<path fill="#818285" d="M222.404,405.588l-33.385,30.967l-21.078,18.087l-66.128-15.609l51.255-44.033l31.457,4.743
				L222.404,405.588z"/>
		</g>
	</g>
	<path fill="#FFFFFF" d="M106.698,415.434l54.547,13.549l3.216,0.502c5.205,0.812,8.542,7.107,7.459,14.064
		c-0.813,5.218-0.813,5.218-3.723,7.906l-0.456,0.009l-62.901-14.849"/>
	<g>
		<g>
			<path fill="#BDBEC0" d="M161.37,429.613l-57.344-14.241l49.574-29.093l25.998,3.892L213,395.32L161.37,429.613z"/>
		</g>
	</g>
	<path fill="#939598" d="M167.959,455.19c3.062-2.827,3.062-2.827,3.916-8.313c1.14-7.313-3.107-14.943-8.578-15.795l52.26-34.819
		c5.471,0.854,9.855,7.608,8.715,14.923c-0.748,4.811-3.459,9.596-6.688,11.468L167.959,455.19z"/>
</g>
<g>
	<g>
		<g>
			<path fill="#818285" d="M169.238,358.855l31.712,2.539l39.894,54.54l-67.945,0.157l-16.41-22.41l-25.465-37.746L169.238,358.855z
				"/>
		</g>
	</g>
	<path fill="#FFFFFF" d="M238.447,412.891l-64.631,0.149l-0.441-0.109c-2.221-3.28-2.221-3.28-1.826-8.546
		c0.527-7.021,5.211-12.396,10.465-12.001l3.246,0.244l56.197-0.782"/>
	<g>
		<g>
			<path fill="#BDBEC0" d="M142.518,348.076l33.699,2.584l26.201,2.125l41.656,39.605l-59.082,0.823L142.518,348.076z"/>
		</g>
	</g>
	<path fill="#939598" d="M131.835,373.648c-2.718-2.558-4.269-7.834-3.903-12.688c0.555-7.381,6.36-12.963,11.881-12.548
		l42.971,45.793c-5.521-0.414-11.393,6.049-11.946,13.431c-0.417,5.536-0.417,5.536,1.921,8.984L131.835,373.648z"/>
</g>
<ellipse fill="none" stroke="#224099" stroke-width="3" cx="175.997" cy="238.621" rx="172.648" ry="229.084"/>
</svg>
