<?xml version="1.0" encoding="utf-8"?>
<!-- Generator: Adobe Illustrator 14.0.0, SVG Export Plug-In . SVG Version: 6.00 Build 43363)  -->
<!DOCTYPE svg PUBLIC "-//W3C//DTD SVG 1.1//EN" "http://www.w3.org/Graphics/SVG/1.1/DTD/svg11.dtd">
<svg version="1.1" id="Layer_1" xmlns="http://www.w3.org/2000/svg" xmlns:xlink="http://www.w3.org/1999/xlink" x="0px" y="0px"
	 width="350px" height="475px" viewBox="0 0 350 475" enable-background="new 0 0 350 475" xml:space="preserve">
<g>
	<g>
		<g>
			<path fill="#818285" d="M259.854,326.086l-28.218,35.736l-18.043,21.118l-67.743-5.242l43.865-51.4l31.812-0.158L259.854,326.086
				z"/>
		</g>
	</g>
	<path fill="#FFFFFF" d="M147.044,353.63l55.982,4.987h3.255c5.268,0,9.535,5.709,9.535,12.75c0,5.28,0,5.28-2.461,8.386
		l-0.449,0.077l-64.437-4.987"/>
	<g>
		<g>
			<path fill="#BDBEC0" d="M203.247,359.222l-58.854-5.242l44.504-36.379l26.286-0.158l33.797-0.053L203.247,359.222z"/>
		</g>
	</g>
	<path fill="#939598" d="M213.695,383.479c2.589-3.263,2.589-3.263,2.589-8.813c0-7.403-5.37-14.288-10.907-14.288l46.275-42.449
		c5.537,0,10.91,6.002,10.91,13.403c0,4.867-1.939,10.013-4.843,12.361L213.695,383.479z"/>
</g>
<ellipse opacity="0.1" fill="#21409A" stroke="#21409A" cx="175.352" cy="240.231" rx="172.648" ry="229.084"/>
<g>
	<g>
		<g>
			<path fill="#818285" d="M160.81,300.833l-33.383,30.966l-21.079,18.088l-66.128-15.611l51.255-44.032l31.457,4.742
				L160.81,300.833z"/>
		</g>
	</g>
	<path fill="#FFFFFF" d="M45.105,310.679l54.546,13.547l3.217,0.502c5.206,0.812,8.543,7.109,7.459,14.065
		c-0.813,5.218-0.813,5.218-3.722,7.907l-0.456,0.008l-62.901-14.849"/>
	<g>
		<g>
			<path fill="#BDBEC0" d="M99.777,324.858l-57.345-14.241l49.575-29.094l25.996,3.893l33.403,5.149L99.777,324.858z"/>
		</g>
	</g>
	<path fill="#939598" d="M106.366,350.435c3.061-2.826,3.061-2.826,3.915-8.311c1.14-7.313-3.107-14.944-8.577-15.796l52.259-34.819
		c5.471,0.853,9.856,7.609,8.716,14.924c-0.749,4.809-3.458,9.594-6.688,11.466L106.366,350.435z"/>
</g>
<g>
	<path fill="none" stroke="#FFFFFF" d="M4.52,295.761c0,0,370.111-38.516,344.179,0"/>
	<line fill="none" stroke="#FFFFFF" x1="4.52" y1="315.022" x2="348.698" y2="315.022"/>
	<path fill="none" stroke="#FFFFFF" d="M4.52,355.987c0,0,344.179,21.705,344.179,0"/>
	<line fill="none" stroke="#FFFFFF" x1="4.52" y1="334.283" x2="348.698" y2="334.283"/>
	<line fill="none" stroke="#FFFFFF" x1="4.52" y1="383.984" x2="348.698" y2="383.984"/>
	<line fill="none" stroke="#FFFFFF" x1="4.52" y1="403.242" x2="348.698" y2="403.242"/>
	<line fill="none" stroke="#FFFFFF" x1="4.52" y1="444.22" x2="348.698" y2="444.22"/>
	<line fill="none" stroke="#FFFFFF" x1="4.52" y1="422.5" x2="348.698" y2="422.5"/>
	<path fill="none" stroke="#FFFFFF" d="M4.52,474c0,0,310.795-32.35,344.179,0"/>
</g>
<g>
	<g>
		<g>
			<path fill="#818285" d="M189.019,344.852l-28.218,35.736l-18.043,21.118l-67.743-5.242l43.865-51.4l31.812-0.158L189.019,344.852
				z"/>
		</g>
	</g>
	<path fill="#FFFFFF" d="M76.208,372.396l55.982,4.987h3.255c5.268,0,9.536,5.709,9.536,12.75c0,5.28,0,5.28-2.461,8.386
		l-0.449,0.077l-64.437-4.987"/>
	<g>
		<g>
			<path fill="#BDBEC0" d="M132.411,377.987l-58.854-5.242l44.504-36.379l26.286-0.158l33.797-0.053L132.411,377.987z"/>
		</g>
	</g>
	<path fill="#939598" d="M142.86,402.244c2.588-3.263,2.588-3.263,2.588-8.813c0-7.403-5.37-14.288-10.907-14.288l46.275-42.449
		c5.537,0,10.91,6.002,10.91,13.403c0,4.867-1.939,10.013-4.843,12.361L142.86,402.244z"/>
</g>
<g>
	<g>
		<g>
			<path fill="#818285" d="M158.191,332.724l-28.218,35.736l-18.043,21.118l-67.743-5.242l43.865-51.4l31.812-0.158L158.191,332.724
				z"/>
		</g>
	</g>
	<path fill="#FFFFFF" d="M45.381,360.268l55.982,4.987h3.255c5.268,0,9.536,5.709,9.536,12.75c0,5.28,0,5.28-2.461,8.386
		l-0.449,0.077l-64.437-4.987"/>
	<g>
		<g>
			<path fill="#BDBEC0" d="M101.584,365.859l-58.854-5.242l44.504-36.379l26.286-0.158l33.797-0.053L101.584,365.859z"/>
		</g>
	</g>
	<path fill="#939598" d="M112.033,390.116c2.588-3.263,2.588-3.263,2.588-8.813c0-7.403-5.37-14.288-10.907-14.288l46.275-42.449
		c5.537,0,10.91,6.002,10.91,13.403c0,4.867-1.939,10.013-4.843,12.361L112.033,390.116z"/>
</g>
<g>
	<g>
		<g>
			<path fill="#818285" d="M273.435,348.931l-28.217,35.737l-18.044,21.117l-67.742-5.242l43.863-51.4l31.813-0.158L273.435,348.931
				z"/>
		</g>
	</g>
	<path fill="#FFFFFF" d="M160.625,376.475l55.981,4.987h3.256c5.268,0,9.536,5.71,9.536,12.75c0,5.279,0,5.279-2.462,8.385
		l-0.448,0.079l-64.438-4.988"/>
	<g>
		<g>
			<path fill="#BDBEC0" d="M216.828,382.066l-58.854-5.242l44.503-36.378l26.287-0.158l33.797-0.054L216.828,382.066z"/>
		</g>
	</g>
	<path fill="#939598" d="M227.276,406.324c2.589-3.263,2.589-3.263,2.589-8.814c0-7.403-5.371-14.288-10.908-14.288l46.276-42.449
		c5.537,0,10.91,6.002,10.91,13.403c0,4.867-1.94,10.013-4.844,12.361L227.276,406.324z"/>
</g>
<g>
	<g>
		<g>
			<path fill="#818285" d="M313.598,337.533l-36.195,27.627l-22.715,15.986l-64.33-21.871l55.237-38.923l30.858,7.732
				L313.598,337.533z"/>
		</g>
	</g>
	<path fill="#FFFFFF" d="M197.48,336.255l52.998,18.707l3.154,0.807c5.104,1.306,7.823,7.896,6.077,14.717
		c-1.308,5.114-1.308,5.114-4.462,7.514l-0.454-0.036l-61.191-20.804"/>
	<g>
		<g>
			<path fill="#BDBEC0" d="M250.543,355.604l-55.718-19.669l52.132-24.211l25.506,6.363l32.756,8.325L250.543,355.604z"/>
		</g>
	</g>
	<path fill="#939598" d="M254.653,381.693c3.316-2.521,3.316-2.521,4.692-7.898c1.835-7.171-1.663-15.172-7.026-16.545
		l55.354-29.653c5.364,1.372,9.081,8.517,7.246,15.688c-1.206,4.716-4.36,9.219-7.756,10.773L254.653,381.693z"/>
</g>
<g>
	<g>
		<g>
			<path fill="#818285" d="M312.59,312.798l-44.847,7.879l-27.521,3.746l-47.059-49.012l66.951-9.151l23.842,21.061L312.59,312.798z
				"/>
		</g>
	</g>
	<path fill="#FFFFFF" d="M210.076,258.246l38.454,40.991l2.429,2.167c3.93,3.508,3.314,10.609-1.373,15.862
		c-3.515,3.939-3.515,3.939-7.419,4.619l-0.387-0.242l-44.762-46.62"/>
	<g>
		<g>
			<path fill="#BDBEC0" d="M248.292,299.835l-40.426-43.093l57.427,2.481l19.719,17.384l25.255,22.461L248.292,299.835z"/>
		</g>
	</g>
	<path fill="#939598" d="M239.938,324.893c4.105-0.712,4.105-0.712,7.801-4.854c4.929-5.524,5.504-14.236,1.372-17.922l62.791-0.867
		c4.132,3.686,4.146,11.74-0.783,17.264c-3.24,3.631-8.111,6.181-11.843,5.998L239.938,324.893z"/>
</g>
<g>
	<g>
		<g>
			<path fill="#818285" d="M158.159,260.189l-33.383,30.965l-21.079,18.089l-66.127-15.61l51.255-44.034l31.457,4.742
				L158.159,260.189z"/>
		</g>
	</g>
	<path fill="#FFFFFF" d="M42.454,270.036l54.547,13.547l3.216,0.5c5.205,0.812,8.544,7.11,7.459,14.066
		c-0.812,5.219-0.812,5.219-3.723,7.907l-0.455,0.008l-62.901-14.851"/>
	<g>
		<g>
			<path fill="#BDBEC0" d="M97.126,284.214l-57.345-14.242l49.574-29.092l25.997,3.892l33.402,5.15L97.126,284.214z"/>
		</g>
	</g>
	<path fill="#939598" d="M103.715,309.79c3.062-2.825,3.062-2.825,3.916-8.31c1.139-7.315-3.108-14.944-8.579-15.796l52.261-34.819
		c5.471,0.853,9.855,7.609,8.715,14.924c-0.749,4.809-3.458,9.593-6.687,11.467L103.715,309.79z"/>
</g>
<g>
	<g>
		<g>
			<path fill="#818285" d="M243.533,308.381l-28.217,35.736l-18.043,21.117l-67.742-5.242l43.864-51.4l31.813-0.157L243.533,308.381
				z"/>
		</g>
	</g>
	<path fill="#FFFFFF" d="M130.724,335.924l55.982,4.987h3.255c5.268,0,9.535,5.71,9.535,12.75c0,5.279,0,5.279-2.461,8.385
		l-0.449,0.079l-64.437-4.988"/>
	<g>
		<g>
			<path fill="#BDBEC0" d="M186.927,341.516l-58.854-5.243l44.504-36.378l26.287-0.158l33.796-0.053L186.927,341.516z"/>
		</g>
	</g>
	<path fill="#939598" d="M197.375,365.772c2.589-3.262,2.589-3.262,2.589-8.813c0-7.403-5.371-14.288-10.907-14.288l46.276-42.449
		c5.536,0,10.909,6.001,10.909,13.403c0,4.867-1.941,10.012-4.843,12.361L197.375,365.772z"/>
</g>
<g>
	<g>
		<g>
			<path fill="#818285" d="M214.352,275.335l-28.22,35.736l-18.041,21.119l-67.743-5.243l43.865-51.4l31.812-0.159L214.352,275.335z
				"/>
		</g>
	</g>
	<path fill="#FFFFFF" d="M101.541,302.879l55.981,4.986h3.255c5.268,0,9.536,5.71,9.536,12.751c0,5.28,0,5.28-2.461,8.386
		l-0.449,0.076l-64.438-4.987"/>
	<g>
		<g>
			<path fill="#BDBEC0" d="M157.744,308.471l-58.854-5.243l44.504-36.378l26.286-0.158l33.798-0.053L157.744,308.471z"/>
		</g>
	</g>
	<path fill="#939598" d="M168.192,332.729c2.588-3.264,2.588-3.264,2.588-8.815c0-7.402-5.371-14.287-10.907-14.287l46.275-42.449
		c5.536,0,10.909,6.001,10.909,13.404c0,4.867-1.938,10.012-4.842,12.359L168.192,332.729z"/>
</g>
<g>
	<path fill="none" stroke="#FFFFFF" d="M1.908,16.197c0,0,370.111-38.516,344.179,0"/>
	<line fill="none" stroke="#FFFFFF" x1="1.908" y1="35.458" x2="346.087" y2="35.458"/>
	<path fill="none" stroke="#FFFFFF" d="M1.908,76.423c0,0,344.179,21.705,344.179,0"/>
	<line fill="none" stroke="#FFFFFF" x1="1.908" y1="54.719" x2="346.087" y2="54.719"/>
	<line fill="none" stroke="#FFFFFF" x1="1.908" y1="104.42" x2="346.087" y2="104.42"/>
	<line fill="none" stroke="#FFFFFF" x1="1.908" y1="123.678" x2="346.087" y2="123.678"/>
	<line fill="none" stroke="#FFFFFF" x1="1.908" y1="164.655" x2="346.087" y2="164.655"/>
	<line fill="none" stroke="#FFFFFF" x1="1.908" y1="142.936" x2="346.087" y2="142.936"/>
	<path fill="none" stroke="#FFFFFF" d="M1.908,194.436c0,0,310.795-32.35,344.179,0"/>
	<line fill="none" stroke="#FFFFFF" x1="1.908" y1="213.699" x2="346.087" y2="213.699"/>
	<path fill="none" stroke="#FFFFFF" d="M1.908,254.665c0,0,297.224,27.868,320.715,0"/>
	<path fill="none" stroke="#FFFFFF" d="M1.908,232.963c0,0,344.495-11.842,344.179,0"/>
</g>
<g>
	<g>
		<g>
			<path fill="#818285" d="M267.136,243.442l-33.383,30.965l-21.079,18.089l-66.127-15.61l51.255-44.034l31.457,4.742
				L267.136,243.442z"/>
		</g>
	</g>
	<path fill="#FFFFFF" d="M151.431,253.289l54.547,13.547l3.216,0.5c5.205,0.812,8.544,7.11,7.459,14.066
		c-0.812,5.219-0.812,5.219-3.723,7.907l-0.455,0.008l-62.901-14.851"/>
	<g>
		<g>
			<path fill="#BDBEC0" d="M206.103,267.467l-57.345-14.242l49.574-29.092l25.997,3.891l33.402,5.151L206.103,267.467z"/>
		</g>
	</g>
	<path fill="#939598" d="M212.691,293.043c3.062-2.825,3.062-2.825,3.916-8.31c1.139-7.315-3.108-14.944-8.579-15.796l52.261-34.819
		c5.471,0.853,9.855,7.609,8.715,14.924c-0.749,4.809-3.458,9.593-6.687,11.467L212.691,293.043z"/>
</g>
<g>
	<g>
		<g>
			<path fill="#818285" d="M64.206,230.063l31.457-4.742l51.255,44.034l-66.127,15.61l-21.079-18.089l-33.383-30.965L64.206,230.063
				z"/>
		</g>
	</g>
	<path fill="#FFFFFF" d="M142.034,245.758l-54.547,13.547l-3.216,0.5c-5.205,0.812-8.544,7.11-7.459,14.066
		c0.812,5.219,0.812,5.219,3.723,7.907l0.455,0.008l62.901-14.851"/>
	<g>
		<g>
			<path fill="#BDBEC0" d="M35.733,225.644l33.402-5.151l25.997-3.891l49.574,29.092l-57.345,14.242L35.733,225.644z"/>
		</g>
	</g>
	<path fill="#939598" d="M80.773,285.512c-3.062-2.825-3.062-2.825-3.916-8.31c-1.139-7.315,3.108-14.944,8.579-15.796
		l-52.261-34.819c-5.471,0.853-9.855,7.609-8.715,14.924c0.749,4.809,3.458,9.593,6.687,11.467L80.773,285.512z"/>
</g>
<g>
	<g>
		<g>
			<path fill="#818285" d="M93.322,162.426l6.329,31.178l-41.381,53.42l-18.94-65.253l16.998-21.968l29.233-34.91L93.322,162.426z"
				/>
		</g>
	</g>
	<path fill="#FFFFFF" d="M81.59,240.95l-16.293-53.79l-0.664-3.186c-1.073-5.158-7.532-8.174-14.426-6.739
		c-5.169,1.077-5.169,1.077-7.708,4.119l0.018,0.455l18.016,62.07"/>
	<g>
		<g>
			<path fill="#BDBEC0" d="M96.292,133.766l6.835,33.1l5.204,25.767L81.79,243.616L64.66,187.067L96.292,133.766z"/>
		</g>
	</g>
	<path fill="#939598" d="M38.783,181.782c2.667-3.2,2.667-3.2,8.103-4.331c7.247-1.509,15.082,2.346,16.211,7.767L95.22,131.26
		c-1.128-5.42-8.098-9.457-15.343-7.947c-4.767,0.99-9.407,3.939-11.115,7.259L38.783,181.782z"/>
</g>
<g>
	<g>
		<g>
			<path fill="#818285" d="M212.471,219.576l-38.402,24.464l-23.986,14.008l-62.248-27.236l58.332-34.11l30.094,10.316
				L212.471,219.576z"/>
		</g>
	</g>
	<path fill="#FFFFFF" d="M96.879,208.477l51.226,23.125l3.074,1.07c4.975,1.733,7.128,8.529,4.811,15.178
		c-1.736,4.988-1.736,4.988-5.083,7.109l-0.449-0.074l-59.21-25.908"/>
	<g>
		<g>
			<path fill="#BDBEC0" d="M148.114,232.245l-53.853-24.312l53.994-19.713l24.875,8.498l31.935,11.068L148.114,232.245z"/>
		</g>
	</g>
	<path fill="#939598" d="M150.001,258.589c3.519-2.229,3.519-2.229,5.345-7.471c2.434-6.992-0.374-15.26-5.602-17.08l57.666-24.865
		c5.229,1.821,8.328,9.256,5.892,16.247c-1.6,4.596-5.124,8.816-8.637,10.079L150.001,258.589z"/>
</g>
<g>
	<g>
		<g>
			<path fill="#818285" d="M123.485,169.018l30.094-10.316l58.332,34.11l-62.247,27.236l-23.986-14.008l-38.402-24.464
				L123.485,169.018z"/>
		</g>
	</g>
	<path fill="#FFFFFF" d="M202.866,170.477l-51.225,23.125l-3.074,1.07c-4.975,1.733-7.128,8.529-4.811,15.178
		c1.736,4.988,1.736,4.988,5.083,7.109l0.449-0.074l59.21-25.908"/>
	<g>
		<g>
			<path fill="#BDBEC0" d="M94.682,169.786l31.934-11.068l24.875-8.498l53.994,19.713l-53.853,24.312L94.682,169.786z"/>
		</g>
	</g>
	<path fill="#939598" d="M149.744,220.589c-3.519-2.229-3.519-2.229-5.345-7.471c-2.434-6.992,0.374-15.26,5.602-17.08
		l-57.665-24.865c-5.229,1.821-8.328,9.256-5.893,16.247c1.6,4.596,5.125,8.816,8.637,10.079L149.744,220.589z"/>
</g>
<g>
	<g>
		<g>
			<path fill="#818285" d="M261.676,214.746l-44.282,9.772l-27.214,4.914l-48.333-46.727l66.194-11.99l24.367,19.923
				L261.676,214.746z"/>
		</g>
	</g>
	<path fill="#FFFFFF" d="M158.083,164.901l39.527,39.119l2.482,2.05c4.019,3.32,3.64,10.412-0.846,15.839
		c-3.362,4.073-3.362,4.073-7.218,4.914l-0.392-0.223l-45.976-44.447"/>
	<g>
		<g>
			<path fill="#BDBEC0" d="M197.394,204.625l-41.554-41.125l57.115-0.005l20.151,16.441l25.813,21.255L197.394,204.625z"/>
		</g>
	</g>
	<path fill="#939598" d="M189.916,229.91c4.054-0.884,4.054-0.884,7.589-5.163c4.714-5.709,5-14.401,0.776-17.889l62.334-3.57
		c4.224,3.489,4.5,11.501-0.215,17.208c-3.098,3.753-7.854,6.496-11.563,6.479L189.916,229.91z"/>
</g>
<g>
	<g>
		<g>
			<path fill="#818285" d="M222.405,405.588l-33.385,30.967l-21.078,18.087l-66.128-15.61l51.255-44.033l31.457,4.743
				L222.405,405.588z"/>
		</g>
	</g>
	<path fill="#FFFFFF" d="M106.698,415.434l54.547,13.548l3.216,0.502c5.205,0.812,8.542,7.108,7.459,14.065
		c-0.813,5.218-0.813,5.218-3.723,7.906l-0.456,0.009l-62.901-14.849"/>
	<g>
		<g>
			<path fill="#BDBEC0" d="M161.37,429.613l-57.344-14.241l49.574-29.093l25.997,3.892L213,395.32L161.37,429.613z"/>
		</g>
	</g>
	<path fill="#939598" d="M167.959,455.19c3.062-2.827,3.062-2.827,3.916-8.312c1.14-7.313-3.107-14.943-8.578-15.795l52.259-34.819
		c5.472,0.853,9.856,7.608,8.716,14.923c-0.748,4.81-3.459,9.595-6.688,11.467L167.959,455.19z"/>
</g>
<ellipse fill="none" stroke="#21409A" stroke-width="3" cx="174.997" cy="239.621" rx="172.648" ry="229.084"/>
<g>
	<g>
		<g>
			<path fill="#818285" d="M127.001,428.803l-41.034,19.741l-25.476,11.064L1.911,425.187l61.963-26.955l28.658,13.812
				L127.001,428.803z"/>
		</g>
	</g>
	<path fill="#FFFFFF" d="M13.538,404.079l48.124,29.036l2.925,1.428c4.733,2.311,6.065,9.313,2.978,15.64
		c-2.316,4.746-2.316,4.746-5.889,6.457l-0.438-0.126L5.515,423.771"/>
	<g>
		<g>
			<path fill="#BDBEC0" d="M61.595,433.755l-50.592-30.522l55.95-13.175l23.692,11.387l30.398,14.773L61.595,433.755z"/>
		</g>
	</g>
	<path fill="#939598" d="M60.346,460.138c3.759-1.798,3.759-1.798,6.193-6.786c3.247-6.651,1.439-15.195-3.537-17.623l60.205-17.854
		c4.977,2.429,7.173,10.178,3.926,16.83c-2.133,4.375-6.135,8.147-9.772,8.984L60.346,460.138z"/>
</g>
<g>
	<g>
		<g>
			<path fill="#818285" d="M202.191,412.673l28.658-13.812l61.963,26.955l-58.58,34.422l-25.477-11.064l-41.033-19.741
				L202.191,412.673z"/>
		</g>
	</g>
	<path fill="#FFFFFF" d="M281.186,404.709l-48.123,29.036l-2.926,1.428c-4.733,2.311-6.065,9.313-2.979,15.64
		c2.316,4.746,2.316,4.746,5.89,6.457l0.438-0.126l55.722-32.743"/>
	<g>
		<g>
			<path fill="#BDBEC0" d="M173.681,416.848l30.397-14.773l23.692-11.387l55.95,13.175l-50.592,30.522L173.681,416.848z"/>
		</g>
	</g>
	<path fill="#939598" d="M234.377,460.768c-3.759-1.798-3.759-1.798-6.192-6.786c-3.247-6.651-1.438-15.195,3.537-17.623
		l-60.204-17.854c-4.977,2.429-7.174,10.178-3.926,16.83c2.133,4.375,6.135,8.147,9.771,8.984L234.377,460.768z"/>
</g>
<g>
	<g>
		<g>
			<path fill="#818285" d="M240.93,355.935l-25.465,37.747l-16.411,22.41l-67.945-0.157l39.894-54.54l31.712-2.539L240.93,355.935z"
				/>
		</g>
	</g>
	<path fill="#FFFFFF" d="M130.496,391.845l56.198,0.783l3.246-0.244c5.253-0.395,9.937,4.979,10.464,12.001
		c0.395,5.265,0.395,5.265-1.826,8.546l-0.442,0.109l-64.63-0.149"/>
	<g>
		<g>
			<path fill="#BDBEC0" d="M186.961,393.214l-59.082-0.823l41.656-39.606l26.201-2.125l33.699-2.584L186.961,393.214z"/>
		</g>
	</g>
	<path fill="#939598" d="M199.195,416.621c2.338-3.448,2.338-3.448,1.921-8.984c-0.554-7.382-6.425-13.845-11.946-13.431
		l42.97-45.793c5.521-0.415,11.327,5.167,11.881,12.548c0.365,4.854-1.185,10.13-3.903,12.688L199.195,416.621z"/>
</g>
<g>
	<g>
		<g>
			<path fill="#818285" d="M183.866,324.898l31.712,2.539l39.894,54.54l-67.945,0.157l-16.411-22.41l-25.465-37.747L183.866,324.898
				z"/>
		</g>
	</g>
	<path fill="#FFFFFF" d="M256.084,357.888l-56.198,0.783l-3.246-0.244c-5.253-0.395-9.937,4.979-10.464,12.001
		c-0.395,5.265-0.395,5.265,1.826,8.546l0.442,0.109l64.63-0.149"/>
	<g>
		<g>
			<path fill="#BDBEC0" d="M157.145,314.118l33.699,2.584l26.201,2.125l41.655,39.606l-59.081,0.823L157.145,314.118z"/>
		</g>
	</g>
	<path fill="#939598" d="M187.385,382.664c-2.338-3.448-2.338-3.448-1.921-8.984c0.554-7.382,6.425-13.845,11.946-13.431
		l-42.97-45.793c-5.521-0.415-11.327,5.167-11.881,12.548c-0.365,4.854,1.185,10.13,3.903,12.688L187.385,382.664z"/>
</g>
<g>
	<g>
		<g>
			<path fill="#818285" d="M286.202,284.266l-25.465,37.747l-16.411,22.41l-67.945-0.157l39.894-54.54l31.712-2.539L286.202,284.266
				z"/>
		</g>
	</g>
	<path fill="#FFFFFF" d="M175.769,320.176l56.198,0.783l3.246-0.244c5.253-0.395,9.937,4.979,10.464,12.001
		c0.395,5.265,0.395,5.265-1.826,8.546l-0.442,0.109l-64.631-0.149"/>
	<g>
		<g>
			<path fill="#BDBEC0" d="M232.233,321.545l-59.082-0.823l41.656-39.606l26.201-2.125l33.699-2.584L232.233,321.545z"/>
		</g>
	</g>
	<path fill="#939598" d="M244.468,344.952c2.338-3.448,2.338-3.448,1.921-8.984c-0.554-7.382-6.425-13.845-11.946-13.431
		l42.97-45.793c5.521-0.415,11.327,5.167,11.881,12.548c0.365,4.854-1.185,10.13-3.903,12.688L244.468,344.952z"/>
</g>
<g>
	<g>
		<g>
			<path fill="#818285" d="M298.486,250.309l-25.465,37.747l-16.411,22.41l-67.945-0.157l39.894-54.54l31.712-2.539L298.486,250.309
				z"/>
		</g>
	</g>
	<path fill="#FFFFFF" d="M188.053,286.219l56.198,0.783l3.246-0.244c5.253-0.395,9.937,4.979,10.464,12.001
		c0.395,5.265,0.395,5.265-1.826,8.546l-0.442,0.109l-64.631-0.149"/>
	<g>
		<g>
			<path fill="#BDBEC0" d="M244.518,287.588l-59.082-0.823l41.656-39.606l26.201-2.125l33.699-2.584L244.518,287.588z"/>
		</g>
	</g>
	<path fill="#939598" d="M256.752,310.995c2.338-3.448,2.338-3.448,1.921-8.984c-0.554-7.382-6.425-13.845-11.946-13.431
		l42.97-45.793c5.521-0.415,11.327,5.167,11.881,12.548c0.365,4.854-1.185,10.13-3.903,12.688L256.752,310.995z"/>
</g>
<g>
	<g>
		<g>
			<path fill="#818285" d="M158.147,283.644l-26.257,37.2l-16.881,22.058l-67.927-1.593l41.038-53.685l31.758-1.868L158.147,283.644
				z"/>
		</g>
	</g>
	<path fill="#FFFFFF" d="M46.979,317.211l56.169,1.971l3.25-0.175c5.26-0.284,9.829,5.187,10.208,12.219
		c0.283,5.272,0.283,5.272-2.006,8.506l-0.445,0.1l-64.613-1.516"/>
	<g>
		<g>
			<path fill="#BDBEC0" d="M103.402,319.773l-59.052-2.072l42.484-38.717l26.24-1.57l33.747-1.871L103.402,319.773z"/>
		</g>
	</g>
	<path fill="#939598" d="M115.139,343.434c2.41-3.397,2.41-3.397,2.11-8.941c-0.397-7.392-6.131-13.978-11.66-13.681l43.928-44.874
		c5.528-0.298,11.215,5.405,11.613,12.796c0.263,4.861-1.398,10.103-4.171,12.604L115.139,343.434z"/>
</g>
<g>
	<g>
		<g>
			<path fill="#818285" d="M222.814,227.133l31.759,1.868l41.038,53.685l-67.928,1.593l-16.881-22.058l-26.257-37.2L222.814,227.133
				z"/>
		</g>
	</g>
	<path fill="#FFFFFF" d="M295.714,258.588l-56.169,1.971l-3.25-0.175c-5.261-0.284-9.83,5.187-10.209,12.219
		c-0.283,5.272-0.283,5.272,2.007,8.506l0.444,0.1l64.613-1.516"/>
	<g>
		<g>
			<path fill="#BDBEC0" d="M195.871,216.92l33.746,1.871l26.24,1.57l42.484,38.717l-59.051,2.072L195.871,216.92z"/>
		</g>
	</g>
	<path fill="#939598" d="M227.554,284.811c-2.41-3.397-2.41-3.397-2.11-8.941c0.397-7.392,6.131-13.978,11.66-13.681l-43.929-44.874
		c-5.528-0.298-11.216,5.405-11.612,12.796c-0.264,4.861,1.398,10.103,4.17,12.604L227.554,284.811z"/>
</g>
<g>
	<g>
		<g>
			<path fill="#818285" d="M241.942,196.856l31.759,1.868l41.038,53.685l-67.928,1.593l-16.881-22.058l-26.257-37.2L241.942,196.856
				z"/>
		</g>
	</g>
	<path fill="#FFFFFF" d="M314.842,228.312l-56.169,1.971l-3.25-0.175c-5.261-0.284-9.83,5.187-10.209,12.219
		c-0.283,5.272-0.283,5.272,2.007,8.506l0.444,0.1l64.613-1.516"/>
	<g>
		<g>
			<path fill="#BDBEC0" d="M214.999,186.644l33.746,1.871l26.24,1.57l42.484,38.717l-59.051,2.072L214.999,186.644z"/>
		</g>
	</g>
	<path fill="#939598" d="M246.682,254.534c-2.41-3.397-2.41-3.397-2.11-8.941c0.397-7.392,6.131-13.978,11.66-13.681l-43.929-44.874
		c-5.528-0.298-11.216,5.405-11.612,12.796c-0.264,4.861,1.398,10.103,4.17,12.604L246.682,254.534z"/>
</g>
<g>
	<g>
		<g>
			<path fill="#818285" d="M269.053,150.546l-33.134,31.231l-20.933,18.257l-66.252-15.078l50.9-44.444L231.13,145L269.053,150.546z
				"/>
		</g>
	</g>
	<path fill="#FFFFFF" d="M153.429,161.32l54.653,13.109l3.22,0.475c5.212,0.769,8.602,7.039,7.573,14.006
		c-0.771,5.223-0.771,5.223-3.659,7.936l-0.455,0.009l-63.02-14.343"/>
	<g>
		<g>
			<path fill="#BDBEC0" d="M208.213,175.059l-57.457-13.782l49.339-29.488l26.028,3.683l33.443,4.882L208.213,175.059z"/>
		</g>
	</g>
	<path fill="#939598" d="M215.008,200.582c3.038-2.85,3.038-2.85,3.848-8.342c1.081-7.323-3.228-14.918-8.705-15.728l51.979-35.235
		c5.478,0.808,9.916,7.529,8.834,14.851c-0.709,4.816-3.381,9.622-6.595,11.521L215.008,200.582z"/>
</g>
<g>
	<g>
		<g>
			<path fill="#818285" d="M91.373,105.268l28.874,13.356l18.555,64.976L75,160.233l-7.642-26.704L56.529,89.303L91.373,105.268z"/>
		</g>
	</g>
	<path fill="#FFFFFF" d="M147.712,161.21l-52.997-18.713l-2.961-1.352c-4.792-2.189-11.046,1.231-13.971,7.637
		c-2.192,4.803-2.192,4.803-1.244,8.65l0.377,0.255l60.689,22.226"/>
	<g>
		<g>
			<path fill="#BDBEC0" d="M70.033,85.906l30.723,14.086l23.847,11.061l25.377,51.575l-55.716-19.673L70.033,85.906z"/>
		</g>
	</g>
	<path fill="#939598" d="M74.684,160.681c-1-4.043-1-4.043,1.307-9.093c3.074-6.734,10.819-10.766,15.856-8.467L67.379,85.287
		c-5.036-2.299-12.416,0.928-15.488,7.661c-2.024,4.428-2.394,9.914-0.729,13.255L74.684,160.681z"/>
</g>
<g>
	<g>
		<g>
			<path fill="#818285" d="M241.552,123.584l-39.524,22.606l-24.625,12.85l-60.881-30.169l59.89-31.293l29.57,11.737
				L241.552,123.584z"/>
		</g>
	</g>
	<path fill="#FFFFFF" d="M126.619,106.99l50.066,25.54l3.019,1.215c4.888,1.968,6.715,8.857,4.084,15.39
		c-1.973,4.897-1.973,4.897-5.415,6.859l-0.444-0.097l-57.911-28.698"/>
	<g>
		<g>
			<path fill="#BDBEC0" d="M176.664,133.173l-52.634-26.85l54.871-17.118l24.442,9.674l31.371,12.575L176.664,133.173z"/>
		</g>
	</g>
	<path fill="#939598" d="M177.295,159.577c3.621-2.059,3.621-2.059,5.694-7.21c2.765-6.866,0.354-15.259-4.781-17.328l58.783-22.087
		c5.137,2.068,7.878,9.641,5.112,16.506c-1.817,4.517-5.54,8.563-9.109,9.657L177.295,159.577z"/>
</g>
<g>
	<g>
		<g>
			<path fill="#818285" d="M276.871,130.222l-45.445,2.832l-27.768,0.656L162.354,79.76l67.553-1.634l21.35,23.588L276.871,130.222z
				"/>
		</g>
	</g>
	<path fill="#FFFFFF" d="M181.074,64.586l33.645,45.021l2.172,2.423c3.518,3.923,2.114,10.912-3.131,15.612
		c-3.932,3.523-3.932,3.523-7.887,3.763l-0.355-0.283l-39.29-51.319"/>
	<g>
		<g>
			<path fill="#BDBEC0" d="M214.416,110.176l-35.369-47.331l56.791,8.868l17.66,19.472l22.594,25.134L214.416,110.176z"/>
		</g>
	</g>
	<path fill="#939598" d="M203.324,134.145c4.158-0.249,4.158-0.249,8.293-3.955c5.512-4.94,7.055-13.535,3.361-17.659l62.494,6.137
		c3.697,4.124,2.813,12.129-2.701,17.067c-3.625,3.25-8.752,5.237-12.438,4.643L203.324,134.145z"/>
</g>
<g>
	<g>
		<g>
			<path fill="#818285" d="M88.466,380.347l31.759,1.868l41.038,53.685l-67.928,1.593l-16.881-22.058l-26.257-37.2L88.466,380.347z"
				/>
		</g>
	</g>
	<path fill="#FFFFFF" d="M161.365,411.802l-56.169,1.971l-3.25-0.175c-5.261-0.284-9.83,5.187-10.209,12.219
		c-0.283,5.272-0.283,5.272,2.007,8.506l0.444,0.1l64.613-1.516"/>
	<g>
		<g>
			<path fill="#BDBEC0" d="M61.522,370.134l33.746,1.871l26.24,1.57l42.484,38.717l-59.051,2.072L61.522,370.134z"/>
		</g>
	</g>
	<path fill="#939598" d="M93.205,438.024c-2.41-3.397-2.41-3.397-2.11-8.941c0.397-7.392,6.131-13.978,11.66-13.681l-43.929-44.874
		c-5.528-0.298-11.216,5.405-11.612,12.796c-0.264,4.861,1.398,10.103,4.17,12.604L93.205,438.024z"/>
</g>
<g>
	<g>
		<g>
			<path fill="#818285" d="M269.977,373.189l28.841,13.426l18.398,65.021l-63.745-23.521l-7.577-26.723l-10.723-44.253
				L269.977,373.189z"/>
		</g>
	</g>
	<path fill="#FFFFFF" d="M326.18,429.269l-52.95-18.842l-2.957-1.358c-4.788-2.201-11.05,1.204-13.99,7.603
		c-2.204,4.799-2.204,4.799-1.266,8.647l0.378,0.257l60.635,22.373"/>
	<g>
		<g>
			<path fill="#BDBEC0" d="M248.684,353.776l30.688,14.161l23.82,11.118l25.251,51.636l-55.668-19.808L248.684,353.776z"/>
		</g>
	</g>
	<path fill="#939598" d="M253.153,428.563c-0.991-4.047-0.991-4.047,1.329-9.091c3.09-6.727,10.846-10.739,15.877-8.428
		l-24.328-57.894c-5.03-2.312-12.418,0.898-15.507,7.624c-2.034,4.423-2.418,9.908-0.762,13.254L253.153,428.563z"/>
</g>
</svg>
